<?xml version="1.0" encoding="UTF-8" standalone="no"?>
<!-- Created with Inkscape (http://www.inkscape.org/) -->

<svg
   xmlns:dc="http://purl.org/dc/elements/1.1/"
   xmlns:cc="http://creativecommons.org/ns#"
   xmlns:rdf="http://www.w3.org/1999/02/22-rdf-syntax-ns#"
   xmlns:svg="http://www.w3.org/2000/svg"
   xmlns="http://www.w3.org/2000/svg"
   xmlns:sodipodi="http://sodipodi.sourceforge.net/DTD/sodipodi-0.dtd"
   xmlns:inkscape="http://www.inkscape.org/namespaces/inkscape"
   width="210mm"
   height="297mm"
   viewBox="0 0 210 297"
   version="1.1"
   id="svg1779"
   inkscape:version="0.92.4 (5da689c313, 2019-01-14)"
   sodipodi:docname="thrower.svg">
  <defs
     id="defs1773" />
  <sodipodi:namedview
     id="base"
     pagecolor="#ffffff"
     bordercolor="#666666"
     borderopacity="1.0"
     inkscape:pageopacity="0.0"
     inkscape:pageshadow="2"
     inkscape:zoom="0.35"
     inkscape:cx="-111.42857"
     inkscape:cy="560"
     inkscape:document-units="mm"
     inkscape:current-layer="layer1"
     showgrid="false"
     showborder="false"
     inkscape:window-width="1366"
     inkscape:window-height="705"
     inkscape:window-x="-8"
     inkscape:window-y="-8"
     inkscape:window-maximized="1" />
  <metadata
     id="metadata1776">
    <rdf:RDF>
      <cc:Work
         rdf:about="">
        <dc:format>image/svg+xml</dc:format>
        <dc:type
           rdf:resource="http://purl.org/dc/dcmitype/StillImage" />
        <dc:title></dc:title>
      </cc:Work>
    </rdf:RDF>
  </metadata>
  <g
     inkscape:label="Layer 1"
     inkscape:groupmode="layer"
     id="layer1">
    <g
       id="g1902"
       transform="matrix(1.4519956,0,0,1.6702204,-29.146161,-52.616416)"
       inkscape:export-xdpi="96"
       inkscape:export-ydpi="96">
      <path
         d="m 86.328562,182.27442 c -9.390339,0 -18.780956,-1.33952 -25.94631,-4.01677 -14.328524,-5.3616 -14.328524,-14.04994 0,-19.40974 7.164265,-2.6808 16.553793,-4.02032 25.942225,-4.02032 9.391435,0 18.782043,1.34127 25.948493,4.02032 14.32934,5.3598 14.32934,14.04814 0,19.40974 -7.16427,2.67725 -16.55488,4.01677 -25.944408,4.01677"
         style="fill:#2a746e;fill-opacity:1;fill-rule:nonzero;stroke:none;stroke-width:0.21927327"
         id="path16"
         inkscape:connector-curvature="0" />
      <path
         d="m 77.914091,53.421486 -2.422235,5.580466 3.738647,5.109211 6.510685,1.639536 8.753116,-4.376815 -0.993035,-6.334023 -9.691652,-2.841386 -5.895526,1.223011"
         style="fill:#c59d8e;fill-opacity:1;fill-rule:nonzero;stroke:none;stroke-width:0.21927327"
         id="path18"
         inkscape:connector-curvature="0" />
      <path
         d="m 79.835855,54.833399 c 0,0 0.09483,7.812922 2.313532,8.040595 8.208239,0.854212 11.835186,-4.736809 11.835186,-4.736809 l 0.959797,-3.68149 5.043343,4.546257 -0.611862,5.259192 -10.147171,4.373313 -11.372045,-0.368699 -4.272897,-4.932766 -1.229232,-6.882869 3.519333,-3.065557 4.770913,-1.185941 -0.808866,2.634924"
         style="fill:#21334a;fill-opacity:1;fill-rule:nonzero;stroke:none;stroke-width:0.21927327"
         id="path20"
         inkscape:connector-curvature="0" />
      <path
         d="m 77.856604,50.715974 c 0,0 -9.002116,-0.847108 -13.277191,1.037761 -4.276982,1.883067 -8.901868,3.921469 -8.901868,3.921469 l 6.8417,7.657638 9.835231,-4.089109 5.502128,-8.527759"
         style="fill:#ffffff;fill-opacity:1;fill-rule:nonzero;stroke:none;stroke-width:0.21927327"
         id="path22"
         inkscape:connector-curvature="0" />
      <path
         d="m 48.738864,60.014949 c -7.203766,4.345048 -10.562368,5.335133 -10.562368,5.335133 l 7.003527,6.859958 c 0,0 5.760674,-1.203651 11.310473,-3.575583 1.50794,-1.118904 -5.549799,-8.66008 -7.751632,-8.619508"
         style="fill:#21334a;fill-opacity:1;fill-rule:nonzero;stroke:none;stroke-width:0.21927327"
         id="path24"
         inkscape:connector-curvature="0" />
      <path
         d="m 36.1918,65.803628 c -2.804195,1.002441 -4.112158,4.20212 -3.195685,5.859266 0.917299,1.655445 5.193185,2.783154 8.974337,2.041954 L 36.1918,65.803628"
         style="fill:#21334a;fill-opacity:1;fill-rule:nonzero;stroke:none;stroke-width:0.21927327"
         id="path26"
         inkscape:connector-curvature="0" />
      <path
         d="m 41.970452,73.704848 c 3.778967,-0.7395 6.41179,-4.881589 6.41179,-4.881589 0,0 4.635783,-0.755308 5.150688,-1.274188 0.516256,-0.520632 0,-3.196127 0,-3.196127 l -6.008315,-1.020102 -1.775196,1.655445 c 0,0 -6.753431,-0.183599 -9.557619,0.815341 0,0 -3.241449,1.978419 -1.122713,5.202761 2.113563,3.226144 6.901365,2.698459 6.901365,2.698459"
         style="fill:#f1bfad;fill-opacity:1;fill-rule:nonzero;stroke:none;stroke-width:0.21927327"
         id="path28"
         inkscape:connector-curvature="0" />
      <path
         d="m 78.286506,157.64076 c -3.158625,1.80898 -8.977596,4.61154 -12.028885,6.07988 -1.701638,0.8189 -2.864671,2.61902 -2.483807,3.95499 0.382269,1.33247 0.733416,2.23781 3.899385,2.0384 5.681664,-0.35669 14.334794,-5.59807 14.334794,-5.59807 0,0 8.28806,-1.77896 9.127716,-3.21204 0.840738,-1.43477 -1.0685,-3.80676 -1.0685,-3.80676 0,0 -10.587699,-0.79237 -11.780703,0.5436"
         style="fill:#181616;fill-opacity:1;fill-rule:nonzero;stroke:none;stroke-width:0.21927327"
         id="path30"
         inkscape:connector-curvature="0" />
      <path
         d="m 78.286506,141.43775 c 1.173659,8.44121 -0.03012,15.31178 0,16.20301 3.082897,3.7079 11.780703,-0.5436 11.780703,-0.5436 0,0 -1.679297,-6.13106 2.772317,-15.99124 -0.787614,-1.31126 -13.894266,-0.59297 -14.55302,0.33168"
         style="fill:#21334a;fill-opacity:1;fill-rule:nonzero;stroke:none;stroke-width:0.21927327"
         id="path32"
         inkscape:connector-curvature="0" />
      <path
         d="m 73.048375,91.201503 c -2.401801,4.597384 3.95251,37.051077 4.381323,39.544817 0.426906,2.49725 -2.175135,7.90117 0,10.12668 2.176494,2.2237 14.391185,2.30839 17.443562,-1.12776 1.755859,-1.97307 -2.004041,-8.03354 -2.127456,-11.56856 -0.123407,-3.5332 4.29415,-19.01437 4.29415,-19.01437 L 93.654655,90.657909 c 0,0 -18.772515,-0.790627 -20.60628,0.543594"
         style="fill:#bbbcbd;fill-opacity:1;fill-rule:nonzero;stroke:none;stroke-width:0.21927327"
         id="path34"
         inkscape:connector-curvature="0" />
      <path
         d="m 65.265953,128.05492 c -2.174316,3.29848 -11.102881,7.82178 -10.757974,10.30492 0.34242,2.48489 6.434131,3.63381 10.741896,2.81847 4.309131,-0.81539 11.348615,-8.75008 11.348615,-8.75008 0,0 5.686297,-3.55792 5.402144,-5.52398 -0.287436,-1.96426 -4.924284,-3.89146 -4.924284,-3.89146 0,0 -11.067736,3.89146 -11.810397,5.04213"
         style="fill:#181616;fill-opacity:1;fill-rule:nonzero;stroke:none;stroke-width:0.21927327"
         id="path36"
         inkscape:connector-curvature="0" />
      <path
         d="m 58.470018,119.1319 c 5.824153,4.50913 6.853415,7.88531 6.795935,8.92302 6.466003,3.33555 13.873013,-3.90736 11.810397,-5.04213 -1.280185,-0.7395 -3.970495,-1.63248 -7.183341,-8.31949 -2.109199,-0.61769 -5.914863,1.37304 -5.914863,1.37304 0,0 -5.438107,1.59721 -5.508128,3.06556"
         style="fill:#21334a;fill-opacity:1;fill-rule:nonzero;stroke:none;stroke-width:0.21927327"
         id="path38"
         inkscape:connector-curvature="0" />
      <path
         d="m 85.027132,94.067602 c -9.802263,1.879566 -28.067224,7.572938 -32.616915,8.460618 -4.549421,0.89304 -4.389772,6.46995 -3.780056,9.14014 0.610009,2.66669 3.817379,2.81668 6.133089,6.17694 2.606126,3.09027 14.854054,0.27165 15.538417,-4.2515 0.250058,-1.62893 -1.485599,-2.3225 -1.485599,-2.3225 0,0 24.49368,-0.19761 32.906252,-3.31089 16.13886,-5.97573 7.11522,-17.302501 7.11522,-17.302501 l -6.17858,0.335181 -11.445607,2.086028 c 0,0 -2.56254,0.591219 -6.186221,0.988334"
         style="fill:#ffffff;fill-opacity:1;fill-rule:nonzero;stroke:none;stroke-width:0.21927327"
         id="path40"
         inkscape:connector-curvature="0" />
      <path
         d="m 64.334761,118.26533 c -0.416017,-0.27715 -10.082331,-6.75935 -6.234162,-10.13548 1.3175,-1.8478 11.403098,-2.94024 26.633939,-4.39267 8.982778,-0.85772 18.273412,-1.74189 19.949432,-2.74434 3.73538,-2.229 -0.0926,-8.418295 -0.13514,-8.481829 l 0.89196,-0.324676 c 0.1692,0.273648 4.06093,6.736391 -0.13731,9.242445 -1.88362,1.12601 -10.479274,1.94485 -20.434916,2.89436 -11.01679,1.05007 -24.725798,2.35783 -25.983634,4.10857 -3.4406,3.02494 6.228718,9.46662 6.327884,9.53366 0,0 -0.05946,0.069 -0.360955,0.1891 -0.303189,0.12156 -0.517106,0.11106 -0.517106,0.11106"
         style="fill:#e41d26;fill-opacity:1;fill-rule:nonzero;stroke:none;stroke-width:0.21927327"
         id="path42"
         inkscape:connector-curvature="0" />
      <path
         d="m 72.354476,87.938289 0.693876,3.263214 c 0,0 19.918929,7.811171 35.789168,-0.543594 -0.41818,-1.094191 -1.21943,-3.187322 -1.21943,-3.187322 l -35.263638,0.467752"
         style="fill:#17202e;fill-opacity:1;fill-rule:nonzero;stroke:none;stroke-width:0.21927327"
         id="path44"
         inkscape:connector-curvature="0" />
      <path
         d="m 95.597942,53.606786 c -0.287436,-0.06153 -1.391058,0.651252 -1.257836,1.226613 1.676031,1.235368 3.661815,2.950795 0.948074,6.173386 -0.964152,1.145369 -11.095522,6.492859 -15.06492,5.478061 -3.969399,-1.012998 -4.301502,-6.418719 -3.511703,-8.947736 0.74917,-2.38784 3.810838,-3.649672 5.059144,-4.844468 0.65982,-0.635343 0,-1.881366 0,-1.881366 0,0 -2.032653,-0.420228 -5.172211,0 -5.378443,0.720089 -10.431316,5.389862 -11.282687,12.212749 -0.851364,6.821087 6.780135,23.041753 7.038673,24.914264 22.215293,9.26896 33.773684,0.398716 35.263644,-0.467752 1.26002,-8.282376 5.4945,-9.321888 7.31002,-13.848684 0.80668,-2.008386 1.3175,-7.144111 -3.05538,-10.131976 -4.36852,-2.986114 -8.71906,-4.172104 -16.274818,-9.883141"
         style="fill:#ffffff;fill-opacity:1;fill-rule:nonzero;stroke:none;stroke-width:0.21927327"
         id="path46"
         inkscape:connector-curvature="0" />
      <path
         d="m 85.806027,91.746798 c -0.04711,-0.07954 -4.483485,-7.821777 -2.83497,-20.985741 0.15229,-1.224762 2.217903,-1.780713 4.829481,-2.483092 3.060555,-0.825947 7.255531,-1.953706 10.408982,-4.689184 3.87269,-3.362067 0.739672,-7.167024 0.706387,-7.205895 l 0.802604,-0.286154 c 0.03707,0.04002 3.444689,4.18271 -0.778084,7.84649 -3.302204,2.8679 -7.630403,4.030929 -10.792024,4.881588 -2.412428,0.651202 -4.156842,1.120656 -4.264178,1.983672 -1.631626,13.019236 2.939318,20.994546 2.981815,21.072238 l -1.060051,-0.134072"
         style="fill:#e41d26;fill-opacity:1;fill-rule:nonzero;stroke:none;stroke-width:0.21927327"
         id="path48"
         inkscape:connector-curvature="0" />
      <path
         d="m 78.312122,89.976691 -0.908851,-0.06353 c 0.970416,-5.850462 2.498512,-17.44898 1.323771,-19.467971 -0.425824,-0.730645 -1.311237,-1.415415 -2.332877,-2.207843 -2.516767,-1.948353 -5.645429,-4.371513 -4.491933,-9.30778 1.02055,-4.380317 5.523381,-6.215759 5.713812,-6.29165 l 0.480887,0.506523 c -0.04247,0.01501 -4.336377,1.778962 -5.289903,5.875125 -1.090834,4.669774 1.893167,6.979972 4.288698,8.836576 1.032266,0.799482 2.009222,1.55484 2.488163,2.379035 1.544986,2.656086 -1.153766,19.046143 -1.271728,19.741519"
         style="fill:#e41d26;fill-opacity:1;fill-rule:nonzero;stroke:none;stroke-width:0.21927327"
         id="path50"
         inkscape:connector-curvature="0" />
      <path
         d="m 98.575402,86.529928 c 10.479278,-4.120877 16.352738,-12.908025 16.352738,-12.908025 0,0 -12.95681,5.368651 -16.352738,12.908025"
         style="fill:#bbbcbd;fill-opacity:1;fill-rule:nonzero;stroke:none;stroke-width:0.21927327"
         id="path52"
         inkscape:connector-curvature="0" />
      <path
         d="m 86.327473,76.173832 c 0,0 4.426276,-6.524626 15.908937,-10.063088 1.18646,0.372201 -4.898688,7.343468 -4.898688,7.343468 l -11.010249,2.71962"
         style="fill:#bbbcbd;fill-opacity:1;fill-rule:nonzero;stroke:none;stroke-width:0.21927327"
         id="path54"
         inkscape:connector-curvature="0" />
      <path
         d="m 65.953304,68.957432 c 5.952194,7.154666 13.559166,11.626783 13.559166,11.626783 l 0.71079,3.102577 -5.265647,3.656726 c 0,0 -4.196073,0.22262 -6.141537,0.07604 -5.554171,-5.709235 -6.640642,-10.008409 -10.84843,-15.493523 0,-0.672413 0,-1.438377 0,-1.438377 l 5.848943,-1.530127 c 0,0 0.991668,-0.29666 2.136715,0"
         style="fill:#f1bfad;fill-opacity:1;fill-rule:nonzero;stroke:none;stroke-width:0.21927327"
         id="path56"
         inkscape:connector-curvature="0" />
      <path
         d="m 62.023137,54.891631 c 1.105823,-0.370701 4.159019,1.039461 5.645707,2.423109 1.488865,1.383648 1.717709,4.412134 1.717709,4.412134 L 67.09727,62.393985 62.519245,61.652734 61.3178,57.0553 c 0,0 -0.400186,-1.793069 0.705306,-2.163669"
         style="fill:#352018;fill-opacity:1;fill-rule:nonzero;stroke:none;stroke-width:0.21927327"
         id="path58"
         inkscape:connector-curvature="0" />
      <path
         d="m 69.386553,61.726874 c -0.304348,2.336613 -3.652285,6.852854 -3.119124,7.172276 -1.524011,3.189074 -8.842474,3.024985 -8.842474,3.024985 0,0 -5.208445,-2.770847 -6.467369,-5.933406 -0.58522,-0.181598 -9.299081,-2.721421 -8.980871,-5.241583 0.320411,-2.520212 8.084824,-8.007127 11.536051,-7.760044 3.453405,0.247134 5.228601,0.730645 7.862521,2.546677 1.562145,1.078332 3.940516,3.743223 4.615348,5.188654 2.403979,0 3.395918,1.002441 3.395918,1.002441"
         style="fill:#593217;fill-opacity:1;fill-rule:nonzero;stroke:none;stroke-width:0.21927327"
         id="path60"
         inkscape:connector-curvature="0" />
      <path
         d="m 44.206333,59.614333 c 8.695629,0.99889 11.102882,6.189295 11.102882,6.189295 0,0 -4.256826,-4.083857 -11.102882,-6.189295"
         style="fill:#352018;fill-opacity:1;fill-rule:nonzero;stroke:none;stroke-width:0.21927327"
         id="path62"
         inkscape:connector-curvature="0" />
      <path
         d="m 46.663714,58.031277 c 8.700803,1.002442 11.104782,6.191046 11.104782,6.191046 0,0 -4.256819,-4.083807 -11.104782,-6.191046"
         style="fill:#352018;fill-opacity:1;fill-rule:nonzero;stroke:none;stroke-width:0.21927327"
         id="path64"
         inkscape:connector-curvature="0" />
      <path
         d="m 48.897417,56.201138 c 8.700811,1.002442 11.102882,6.192847 11.102882,6.192847 0,0 -4.256826,-4.083857 -11.102882,-6.192847"
         style="fill:#352018;fill-opacity:1;fill-rule:nonzero;stroke:none;stroke-width:0.21927327"
         id="path66"
         inkscape:connector-curvature="0" />
      <path
         d="m 51.874059,54.658655 c 8.698625,1.00069 11.100704,6.191045 11.100704,6.191045 0,0 -4.25383,-4.083807 -11.100704,-6.191045"
         style="fill:#352018;fill-opacity:1;fill-rule:nonzero;stroke:none;stroke-width:0.21927327"
         id="path68"
         inkscape:connector-curvature="0" />
      <path
         d="m 58.061368,70.044569 c 0,0 4.20015,-0.248634 6.518045,-2.620816 0,0 -1.446097,-1.680108 -4.670658,-0.545345 -3.228916,1.140117 -1.847387,3.166161 -1.847387,3.166161"
         style="fill:#f1bfad;fill-opacity:1;fill-rule:nonzero;stroke:none;stroke-width:0.21927327"
         id="path70"
         inkscape:connector-curvature="0" />
      <path
         d="m 86.327473,76.173832 c 0,0 -3.935342,3.31264 1.889074,7.537673 5.72335,4.150893 10.358855,2.818423 10.358855,2.818423 l 1.889078,-2.186631 -2.232618,-6.526377 -6.238526,-2.262523 -5.665863,0.619435"
         style="fill:#8f9295;fill-opacity:1;fill-rule:nonzero;stroke:none;stroke-width:0.21927327"
         id="path72"
         inkscape:connector-curvature="0" />
      <path
         d="m 87.930216,75.554397 c 0,0 -6.866219,5.229226 -7.324726,5.612183 l -1.09302,-0.582365 c -1.46979,5.462152 -9.210803,6.686964 -10.696402,6.835194 3.798042,2.920828 8.86073,4.818054 12.131874,4.930965 5.379531,0.1851 16.826224,-9.256553 16.826224,-9.256553 l 2.213547,-1.334221 -0.495869,-5.313971 -6.746071,-2.038402 -4.815588,1.14717"
         style="fill:#21334a;fill-opacity:1;fill-rule:nonzero;stroke:none;stroke-width:0.21927327"
         id="path74"
         inkscape:connector-curvature="0" />
      <path
         d="m 113.45643,64.063487 c -4.76981,-2.83078 -14.523317,4.060895 -14.523317,4.060895 0,0 -11.269883,7.182931 -12.60564,8.04945 11.84799,-1.286545 12.247929,10.356096 12.247929,10.356096 L 114.37046,74.146036 c 0,0 6.75234,-5.53279 -0.91403,-10.082549"
         style="fill:#ffffff;fill-opacity:1;fill-rule:nonzero;stroke:none;stroke-width:0.21927327"
         id="path76"
         inkscape:connector-curvature="0" />
      <path
         d="m 100.96031,84.659217 c -0.008,-0.06353 -0.96933,-6.356985 -6.133903,-8.848932 -1.859111,-0.894783 -4.092003,-1.18419 -6.599233,-0.854161 0,0 0.361804,-0.354692 1.096286,-0.700679 2.262308,-0.128569 4.293872,0.231125 6.051901,1.080084 4.539064,2.191934 5.976709,6.972918 6.358669,8.718361 -0.36806,0.420227 -0.77372,0.605327 -0.77372,0.605327"
         style="fill:#e41d26;fill-opacity:1;fill-rule:nonzero;stroke:none;stroke-width:0.21927327"
         id="path78"
         inkscape:connector-curvature="0" />
      <path
         d="m 80.60549,81.16658 c 3.662911,1.235418 1.907871,5.091601 1.907871,5.091601 0,0 -0.07869,-2.843186 -1.907871,-5.091601"
         style="fill:#17202e;fill-opacity:1;fill-rule:nonzero;stroke:none;stroke-width:0.21927327"
         id="path80"
         inkscape:connector-curvature="0" />
      <path
         d="m 97.201503,49.157632 c 0,0 -1.284262,8.859538 -2.118736,10.23258 -1.14287,1.890121 -5.828509,2.230755 -7.798493,1.496558 -1.933757,-0.718288 -9.370183,-7.465284 -9.370183,-7.465284 -0.972871,0.14808 -6.236348,-4.745665 -2.916977,-6.116906 -0.097,-0.442739 -2.291468,-7.860648 8.755015,-9.009568 11.045395,-1.148871 12.705625,6.487606 12.705625,6.487606 1.944376,-0.11106 0.743765,4.375014 0.743765,4.375014"
         style="fill:#f1bfad;fill-opacity:1;fill-rule:nonzero;stroke:none;stroke-width:0.21927327"
         id="path82"
         inkscape:connector-curvature="0" />
      <path
         d="m 59.141306,109.64057 c 5.723342,-0.54535 9.674762,1.63073 9.674762,1.63073 0,0 -4.388674,-0.93891 -9.674762,-1.63073"
         style="fill:#bbbcbd;fill-opacity:1;fill-rule:nonzero;stroke:none;stroke-width:0.21927327"
         id="path84"
         inkscape:connector-curvature="0" />
      <path
         d="m 74.787337,47.401633 c 0,0 1.434645,2.550178 5.802075,2.857294 4.364163,0.308667 11.061203,-0.547146 14.380566,-2.027846 1.531363,-0.682969 1.487776,-3.448463 1.487776,-3.448463 0,0 -0.413005,-3.676187 -2.499878,-5.386311 -1.716621,-1.410112 -5.569964,-2.806117 -10.780316,-2.101936 -6.086228,0.822394 -8.141215,3.584387 -8.390223,3.9797 -1.280185,1.988975 0,6.127562 0,6.127562"
         style="fill:#21334a;fill-opacity:1;fill-rule:nonzero;stroke:none;stroke-width:0.21927327"
         id="path86"
         inkscape:connector-curvature="0" />
      <path
         d="m 87.404685,42.784788 c 0.346822,0.864767 -0.332072,1.724282 -1.514474,1.921939 -1.180192,0.197606 -2.420049,-0.342185 -2.76169,-1.205402 -0.345741,-0.864767 0.330991,-1.724232 1.513384,-1.923689 1.183467,-0.196106 2.420058,0.344186 2.76278,1.207152"
         style="fill:#f8f8f8;fill-opacity:1;fill-rule:nonzero;stroke:none;stroke-width:0.21927327"
         id="path88"
         inkscape:connector-curvature="0" />
      <path
         d="m 76.723272,49.15413 c 0,0 4.452425,4.713897 6.400075,4.973288 1.945194,0.25964 1.145054,-1.928943 7.234279,-2.869601 5.216885,-0.806536 6.271493,1.088888 6.843877,0.310668 0.572632,-0.778321 -0.873705,-5.511629 -0.873705,-5.511629 -10.573806,-3.27552 -19.604526,3.097324 -19.604526,3.097324"
         style="fill:#17202e;fill-opacity:1;fill-rule:nonzero;stroke:none;stroke-width:0.21927327"
         id="path90"
         inkscape:connector-curvature="0" />
      <path
         d="m 84.69394,37.068449 c 0.08935,0.25964 -0.511931,0.570058 -1.347194,0.695375 -0.835292,0.123567 -1.586672,0.01501 -1.680385,-0.245132 -0.09151,-0.25964 0.510773,-0.570008 1.346105,-0.693575 0.836652,-0.125568 1.588849,-0.01501 1.681474,0.243632"
         style="fill:#17202e;fill-opacity:1;fill-rule:nonzero;stroke:none;stroke-width:0.21927327"
         id="path92"
         inkscape:connector-curvature="0" />
    </g>
  </g>
</svg>
